<?xml version="1.0" encoding="UTF-8"?>
<!DOCTYPE svg PUBLIC "-//W3C//DTD SVG 1.1//EN" "http://www.w3.org/Graphics/SVG/1.1/DTD/svg11.dtd">
<svg xmlns="http://www.w3.org/2000/svg" version="1.1" width="512px" height="512px" style="shape-rendering:geometricPrecision; text-rendering:geometricPrecision; image-rendering:optimizeQuality; fill-rule:evenodd; clip-rule:evenodd" xmlns:xlink="http://www.w3.org/1999/xlink">
<g><path style="opacity:0.967" fill="#000100" d="M 158.5,-0.5 C 165.5,-0.5 172.5,-0.5 179.5,-0.5C 197.04,3.02924 211.207,12.0292 222,26.5C 236.591,46.6802 247.757,68.6802 255.5,92.5C 264.468,62.7135 279.468,36.5468 300.5,14C 309.408,6.76122 319.408,1.92789 330.5,-0.5C 338.167,-0.5 345.833,-0.5 353.5,-0.5C 384.515,6.85903 401.182,26.5257 403.5,58.5C 417.98,59.4915 430.98,64.3249 442.5,73C 446.092,75.921 448.925,79.421 451,83.5C 452.245,87.7647 451.078,91.098 447.5,93.5C 445.143,93.6633 442.81,93.4966 440.5,93C 429.821,80.4975 416.155,74.1641 399.5,74C 397.047,73.0406 394.714,71.874 392.5,70.5C 390.82,68.4726 389.653,66.1392 389,63.5C 388.655,49.4485 383.821,37.2819 374.5,27C 371.861,24.5173 368.861,22.684 365.5,21.5C 344.152,10.0499 324.652,12.7166 307,29.5C 272.98,70.9187 258.813,118.252 264.5,171.5C 264.402,177.205 266.068,182.205 269.5,186.5C 272.726,191.212 277.059,194.712 282.5,197C 333.984,204.045 380.984,192.712 423.5,163C 441.727,150.71 449.893,133.543 448,111.5C 449.025,109.313 450.525,107.646 452.5,106.5C 455.969,105.836 459.136,106.836 462,109.5C 465.515,130.446 460.181,148.779 446,164.5C 423.362,184.241 397.529,198.407 368.5,207C 398.668,215.55 425.168,230.383 448,251.5C 467.426,277.465 468.426,304.131 451,331.5C 438.949,346.36 423.282,354.36 404,355.5C 397.833,396.672 374,416.172 332.5,414C 319.759,412.129 308.759,406.795 299.5,398C 298.833,397.333 298.167,397.333 297.5,398C 304.72,422.95 317.22,444.783 335,463.5C 335.722,466.261 335.555,468.927 334.5,471.5C 331.525,473.824 328.192,474.657 324.5,474C 305.958,455.428 292.624,433.595 284.5,408.5C 279.844,393.061 276.011,377.395 273,361.5C 266.815,348.776 261.315,335.776 256.5,322.5C 258.838,351.857 264.505,380.524 273.5,408.5C 282.653,440.992 299.986,468.159 325.5,490C 329.06,492.403 332.727,494.57 336.5,496.5C 338.107,496.363 339.441,495.696 340.5,494.5C 340.565,489.168 342.232,484.502 345.5,480.5C 353.537,479.022 357.537,482.522 357.5,491C 356.981,501.235 351.981,508.068 342.5,511.5C 338.5,511.5 334.5,511.5 330.5,511.5C 312.729,501.238 297.896,487.571 286,470.5C 269.159,445.135 257.492,417.469 251,387.5C 248.282,375.575 245.948,363.575 244,351.5C 235.911,366.686 226.578,381.02 216,394.5C 195.413,414.219 171.579,419.385 144.5,410C 121.483,399.279 108.983,381.112 107,355.5C 85.2493,354.301 68.5827,344.634 57,326.5C 55.7549,322.235 56.9215,318.902 60.5,316.5C 63.2551,315.02 65.9218,315.187 68.5,317C 73.8052,325.657 81.1386,331.99 90.5,336C 99.5387,338.248 108.539,340.415 117.5,342.5C 118.458,343.962 119.624,345.295 121,346.5C 122.577,357.143 125.244,367.477 129,377.5C 132.981,384.229 138.481,389.229 145.5,392.5C 159.249,400.822 173.582,401.655 188.5,395C 199.961,388.609 209.128,379.775 216,368.5C 241.329,329.705 251.496,287.371 246.5,241.5C 246.791,236.032 245.124,231.365 241.5,227.5C 238.814,222.133 234.481,218.633 228.5,217C 170.933,208.417 120.1,222.917 76,260.5C 66.7825,270.684 62.4492,282.684 63,296.5C 61.5639,299.442 59.3972,301.442 56.5,302.5C 53.495,302.747 50.995,301.747 49,299.5C 46.3606,281.414 51.0272,265.414 63,251.5C 85.4113,230.369 111.578,215.535 141.5,207C 112.379,198.031 86.5456,183.531 64,163.5C 42.7984,136.003 42.1317,108.003 62,79.5C 74.291,66.4401 89.4576,59.4401 107.5,58.5C 109.936,26.0741 126.936,6.40745 158.5,-0.5 Z M 254.5,195.5 C 258.594,199.417 262.928,203.25 267.5,207C 262.992,210.342 258.992,214.175 255.5,218.5C 252.008,214.175 248.008,210.342 243.5,207C 248.045,203.956 251.711,200.123 254.5,195.5 Z"/></g>
<g><path style="opacity:1" fill="#6cc729" d="M 242.5,185.5 C 240.068,184.25 237.734,182.75 235.5,181C 197.302,144.467 158.802,108.3 120,72.5C 119.517,71.552 119.351,70.552 119.5,69.5C 122.524,62.1656 124.358,54.499 125,46.5C 130.159,30.3291 140.993,20.1624 157.5,16C 180.717,12.1931 198.883,20.0264 212,39.5C 241.521,80.9168 252.854,126.917 246,177.5C 245.304,180.438 244.138,183.104 242.5,185.5 Z"/></g>
<g><path style="opacity:1" fill="#4c8e1d" d="M 365.5,21.5 C 348.68,22.2173 334.347,28.5506 322.5,40.5C 289.64,78.0464 270.306,121.713 264.5,171.5C 258.813,118.252 272.98,70.9187 307,29.5C 324.652,12.7166 344.152,10.0499 365.5,21.5 Z"/></g>
<g><path style="opacity:1" fill="#5dab23" d="M 365.5,21.5 C 368.861,22.684 371.861,24.5173 374.5,27C 383.821,37.2819 388.655,49.4485 389,63.5C 389.653,66.1392 390.82,68.4726 392.5,70.5C 350.823,108.512 309.823,147.179 269.5,186.5C 266.068,182.205 264.402,177.205 264.5,171.5C 270.306,121.713 289.64,78.0464 322.5,40.5C 334.347,28.5506 348.68,22.2173 365.5,21.5 Z"/></g>
<g><path style="opacity:1" fill="#5dab23" d="M 119.5,69.5 C 119.351,70.552 119.517,71.552 120,72.5C 158.802,108.3 197.302,144.467 235.5,181C 237.734,182.75 240.068,184.25 242.5,185.5C 241.145,188.855 238.811,191.189 235.5,192.5C 177.993,193.612 127.326,175.778 83.5,139C 74.2385,130.304 68.2385,119.804 65.5,107.5C 72.2456,85.624 87.2456,74.4573 110.5,74C 113.806,73.0138 116.806,71.5138 119.5,69.5 Z"/></g>
<g><path style="opacity:1" fill="#6cc729" d="M 392.5,70.5 C 394.714,71.874 397.047,73.0406 399.5,74C 416.155,74.1641 429.821,80.4975 440.5,93C 442.81,93.4966 445.143,93.6633 447.5,93.5C 449.754,97.5933 451.421,101.927 452.5,106.5C 450.525,107.646 449.025,109.313 448,111.5C 449.893,133.543 441.727,150.71 423.5,163C 380.984,192.712 333.984,204.045 282.5,197C 277.059,194.712 272.726,191.212 269.5,186.5C 309.823,147.179 350.823,108.512 392.5,70.5 Z"/></g>
<g><path style="opacity:1" fill="#4c8d1d" d="M 65.5,107.5 C 68.2385,119.804 74.2385,130.304 83.5,139C 127.326,175.778 177.993,193.612 235.5,192.5C 232.443,195.362 228.776,197.195 224.5,198C 174.182,204.005 128.516,192.338 87.5,163C 75.6383,155.121 67.8049,144.288 64,130.5C 63.3333,123.833 63.3333,117.167 64,110.5C 64.2321,109.263 64.7321,108.263 65.5,107.5 Z"/></g>
<g><path style="opacity:1" fill="#6cc729" d="M 241.5,227.5 C 200.146,265.855 158.813,304.188 117.5,342.5C 108.539,340.415 99.5387,338.248 90.5,336C 81.1386,331.99 73.8052,325.657 68.5,317C 65.9218,315.187 63.2551,315.02 60.5,316.5C 58.2383,312.123 56.905,307.456 56.5,302.5C 59.3972,301.442 61.5639,299.442 63,296.5C 62.4492,282.684 66.7825,270.684 76,260.5C 120.1,222.917 170.933,208.417 228.5,217C 234.481,218.633 238.814,222.133 241.5,227.5 Z"/></g>
<g><path style="opacity:1" fill="#4d8e1d" d="M 441.5,316.5 C 439.549,296.767 430.883,280.6 415.5,268C 377.737,237.8 334.737,220.633 286.5,216.5C 330.689,210.375 372.023,218.875 410.5,242C 421.277,248.302 430.777,256.136 439,265.5C 447.016,276.982 449.682,289.648 447,303.5C 445.608,308.131 443.775,312.464 441.5,316.5 Z"/></g>
<g><path style="opacity:1" fill="#5dab23" d="M 286.5,216.5 C 334.737,220.633 377.737,237.8 415.5,268C 430.883,280.6 439.549,296.767 441.5,316.5C 436.197,326.342 428.197,333.176 417.5,337C 410.567,338.696 403.567,340.029 396.5,341C 394.677,341.997 393.01,343.164 391.5,344.5C 353.629,302.777 315.296,261.444 276.5,220.5C 279.192,217.819 282.525,216.486 286.5,216.5 Z"/></g>
<g><path style="opacity:1" fill="#6cc729" d="M 276.5,220.5 C 315.296,261.444 353.629,302.777 391.5,344.5C 388.822,351.855 386.989,359.521 386,367.5C 377.089,390.227 360.256,400.727 335.5,399C 324.621,397.061 315.287,392.228 307.5,384.5C 278.391,349.181 263.724,308.515 263.5,262.5C 263.451,253.462 263.951,244.462 265,235.5C 266.938,228.915 270.772,223.915 276.5,220.5 Z"/></g>
<g><path style="opacity:1" fill="#5dab23" d="M 241.5,227.5 C 245.124,231.365 246.791,236.032 246.5,241.5C 240.227,288.508 222.394,330.508 193,367.5C 180.528,382.318 164.695,390.652 145.5,392.5C 138.481,389.229 132.981,384.229 129,377.5C 125.244,367.477 122.577,357.143 121,346.5C 119.624,345.295 118.458,343.962 117.5,342.5C 158.813,304.188 200.146,265.855 241.5,227.5 Z"/></g>
<g><path style="opacity:1" fill="#4d8e1d" d="M 246.5,241.5 C 251.496,287.371 241.329,329.705 216,368.5C 209.128,379.775 199.961,388.609 188.5,395C 173.582,401.655 159.249,400.822 145.5,392.5C 164.695,390.652 180.528,382.318 193,367.5C 222.394,330.508 240.227,288.508 246.5,241.5 Z"/></g>
<g><path style="opacity:1" fill="#59a422" d="M 284.5,408.5 C 280.732,407.213 277.065,407.213 273.5,408.5C 264.505,380.524 258.838,351.857 256.5,322.5C 261.315,335.776 266.815,348.776 273,361.5C 276.011,377.395 279.844,393.061 284.5,408.5 Z"/></g>
<g><path style="opacity:1" fill="#6ac228" d="M 284.5,408.5 C 292.624,433.595 305.958,455.428 324.5,474C 328.192,474.657 331.525,473.824 334.5,471.5C 337.576,475.207 341.242,478.207 345.5,480.5C 342.232,484.502 340.565,489.168 340.5,494.5C 339.441,495.696 338.107,496.363 336.5,496.5C 332.727,494.57 329.06,492.403 325.5,490C 299.986,468.159 282.653,440.992 273.5,408.5C 277.065,407.213 280.732,407.213 284.5,408.5 Z"/></g>
</svg>
