<svg width="27" height="27" viewBox="0 0 27 27" fill="none" xmlns="http://www.w3.org/2000/svg">
<path d="M12.375 4.5H4.5C3.90326 4.5 3.33097 4.73705 2.90901 5.15901C2.48705 5.58097 2.25 6.15326 2.25 6.75V22.5C2.25 23.0967 2.48705 23.669 2.90901 24.091C3.33097 24.5129 3.90326 24.75 4.5 24.75H20.25C20.8467 24.75 21.419 24.5129 21.841 24.091C22.2629 23.669 22.5 23.0967 22.5 22.5V14.625" stroke="#333333" stroke-width="1.7" stroke-linecap="round" stroke-linejoin="round"/>
<path d="M20.8125 2.81251C21.2601 2.36496 21.8671 2.11353 22.5 2.11353C23.1329 2.11353 23.7399 2.36496 24.1875 2.81251C24.6351 3.26006 24.8865 3.86708 24.8865 4.50001C24.8865 5.13295 24.6351 5.73996 24.1875 6.18751L13.5 16.875L9 18L10.125 13.5L20.8125 2.81251Z" stroke="#333333" stroke-width="1.7" stroke-linecap="round" stroke-linejoin="round"/>
</svg>
