<svg xmlns="http://www.w3.org/2000/svg" width="492" height="248" viewBox="0 0 492 248" version="1.1"><path d="M 205.743 4.029 C 204.777 4.622, 203.146 6.771, 202.120 8.804 C 199.682 13.632, 189 51.093, 189 54.815 C 189 58.521, 191.835 61.034, 196.760 61.695 C 201.672 62.353, 205.059 60.664, 212.954 53.620 C 217.124 49.899, 220.100 48.080, 222.725 47.646 C 224.801 47.303, 236.803 47.017, 249.395 47.011 L 272.291 47 255.895 55.262 C 228.837 68.896, 216.078 79.289, 209.590 92.980 C 206.929 98.594, 206.502 100.612, 206.517 107.500 C 206.531 113.740, 207.006 116.380, 208.676 119.500 C 213.197 127.947, 222.057 133.192, 231.884 133.239 C 248.877 133.322, 256.226 126.082, 267.061 98.587 C 273.465 82.335, 279.354 70.828, 283.534 66.395 C 285.295 64.528, 286.588 63, 286.408 63 C 285.961 63, 298.278 51.686, 305.577 45.392 C 310.098 41.492, 311.914 39.094, 313.250 35.257 C 316.787 25.099, 314.625 17.361, 307.068 13.129 C 301.270 9.883, 287.986 8.933, 251.822 9.178 L 223.144 9.372 219.145 6.601 C 214.747 3.553, 208.479 2.350, 205.743 4.029 M 206.107 10.064 C 204.246 13.124, 193 51.023, 193 54.234 C 193 55.166, 193.870 56.395, 194.934 56.965 C 198.899 59.087, 201.863 58.093, 208.589 52.388 C 219.025 43.535, 216.585 44.013, 251.323 44.006 C 278.816 44.001, 282.112 44.170, 281.823 45.571 C 281.634 46.492, 275.438 49.956, 266.863 53.936 C 244.216 64.447, 226.870 75.481, 220.118 83.673 C 211.941 93.593, 208.227 106.098, 210.980 114.440 C 214.688 125.675, 228.455 132.245, 240.411 128.484 C 250.926 125.177, 255.510 119.227, 263.529 98.479 C 269.658 82.620, 276.852 68.852, 282.912 61.384 C 285.641 58.020, 292.229 51.765, 297.553 47.483 C 305.246 41.296, 307.719 38.652, 309.606 34.599 C 312.590 28.191, 312.622 24.218, 309.723 19.916 C 305.356 13.437, 303.125 13.118, 261.500 13.032 C 227.562 12.962, 224.159 12.801, 220.373 11.082 C 218.104 10.052, 215.940 8.711, 215.564 8.104 C 215.189 7.497, 213.327 7, 211.426 7 C 208.643 7, 207.608 7.596, 206.107 10.064 M 346.500 19.549 C 344.850 20.395, 342.993 21.752, 342.374 22.565 C 341.497 23.717, 340.651 23.818, 338.554 23.021 C 333.460 21.084, 326.072 24.222, 323.635 29.357 C 322.736 31.252, 322.010 34.309, 322.022 36.151 C 322.047 39.965, 325.202 47.517, 328.027 50.527 C 329.928 52.552, 329.924 52.554, 322.215 52.527 C 313.348 52.496, 308.145 54.884, 305.364 60.262 C 303.145 64.554, 304.045 71.499, 307.233 74.687 C 309.438 76.893, 309.583 77.522, 308.669 80.945 C 307.475 85.420, 308.802 89.526, 312.594 93.088 C 316.428 96.690, 325.096 96.916, 331.312 93.576 C 336.523 90.776, 336.507 90.939, 330.803 98.724 C 326.499 104.598, 316.832 113.025, 310.960 116.020 C 306.412 118.341, 295.954 120.964, 291.167 120.985 C 286.839 121.004, 287.416 123.378, 291.854 123.815 C 305.176 125.128, 324.038 113.885, 333.943 98.726 L 338 92.517 338 96.547 C 338 102.021, 341.114 110.466, 344.396 113.891 L 347.095 116.709 334.494 158.021 C 327.563 180.743, 321.488 200.089, 320.994 201.012 C 320.500 201.934, 318.530 203.884, 316.615 205.344 C 311.703 209.091, 311.068 211.802, 314.428 214.691 C 317.059 216.955, 317.552 217, 339.588 217 C 363.675 217, 368.147 216.263, 369.477 212.073 C 369.948 210.590, 369.382 209.054, 367.573 206.905 C 366.158 205.223, 365 202.923, 365 201.794 C 365 200.665, 370.653 181.462, 377.563 159.120 C 384.473 136.779, 390.382 116.174, 390.695 113.331 C 391.343 107.435, 389.023 102.421, 384.534 100.018 C 382.728 99.052, 382 97.840, 382 95.799 C 382 92.204, 379.841 86.968, 376.619 82.750 L 374.137 79.500 380.995 79.829 C 390.749 80.297, 396.345 77.736, 399.081 71.551 C 400.764 67.744, 400.914 66.393, 400.018 63.065 C 399.431 60.888, 397.876 58.261, 396.560 57.226 C 394.872 55.898, 394.433 54.927, 395.069 53.922 C 396.601 51.503, 396.087 45.655, 394.050 42.314 C 391.459 38.065, 388.642 36.714, 382.374 36.714 C 377.355 36.714, 375.181 37.559, 367.867 42.351 L 365.408 43.963 365.812 37.619 C 366.720 23.353, 356.939 14.201, 346.500 19.549 M 378.271 105.520 C 374.585 109.380, 369.206 110.871, 365.333 109.106 C 363.124 108.099, 362.578 108.267, 360.833 110.485 C 359.681 111.949, 357.019 113.470, 354.494 114.106 C 351.900 114.759, 350.321 115.674, 350.589 116.370 C 350.835 117.013, 345.243 136.529, 338.162 159.739 C 326.284 198.670, 325.005 202.253, 321.643 205.973 C 319.640 208.191, 317.993 209.667, 317.985 209.253 C 317.976 208.839, 317.550 209.163, 317.037 209.974 C 316.423 210.945, 316.513 211.706, 317.303 212.208 C 318.717 213.108, 362.113 213.278, 364.418 212.393 C 366.568 211.568, 366.406 209.678, 364 207.500 C 362.705 206.328, 362.001 204.424, 362.004 202.095 C 362.006 200.118, 367.891 179.375, 375.081 156 C 389.008 110.724, 389.316 109.095, 384.865 104.357 C 383.648 103.060, 382.392 102.031, 382.076 102.069 C 381.759 102.107, 380.047 103.659, 378.271 105.520 M 53.464 107.082 C 40.661 108.672, 25.925 116.348, 18.738 125.170 C 11.129 134.508, 5.272 147.232, 2.579 160.271 C -2.442 184.578, 5.660 203.239, 25.280 212.556 C 45.909 222.352, 69.686 218.281, 87 201.989 C 90.575 198.625, 92.954 196.142, 92.288 196.472 C 91.621 196.802, 92.178 195.143, 93.526 192.786 C 94.873 190.429, 95.981 187.548, 95.988 186.385 C 96.015 181.630, 87.995 175.283, 83.413 176.433 C 82.108 176.760, 77.938 180.131, 74.145 183.924 C 66.429 191.640, 62.752 193.900, 56.734 194.625 C 50.729 195.349, 48.436 194.439, 46.619 190.610 C 43.131 183.259, 45.870 164.781, 52.980 147.702 C 56.471 139.317, 64.419 130.093, 68.332 129.885 C 75.164 129.522, 76.222 130.386, 81.829 140.908 C 87.145 150.887, 90.620 154, 96.442 154 C 100.920 154, 106 151.088, 106 148.520 C 106 147.786, 108.250 141.071, 111 133.598 C 113.750 126.124, 116 118.433, 116 116.505 C 116 111.879, 113.300 109.318, 107.508 108.449 C 102.225 107.657, 96.634 109.648, 91.485 114.155 L 88.452 116.811 82.976 113.433 C 74.699 108.327, 63.261 105.865, 53.464 107.082 M 51.938 111.063 C 38.543 113.034, 25.761 121.001, 18.759 131.742 C 9.554 145.860, 5.597 158.542, 5.574 174 C 5.559 183.256, 5.869 185.173, 8.189 190.175 C 15.549 206.047, 33.413 215.135, 54.581 213.776 C 60.167 213.418, 63.521 212.500, 69.340 209.736 C 80.795 204.296, 92 192.999, 92 186.889 C 92 183.689, 88.614 180, 85.678 180 C 84.608 180, 80.435 183.132, 76.406 186.959 C 68.008 194.936, 63.561 197.495, 56.500 198.411 C 50.494 199.191, 46.084 196.969, 43.368 191.794 C 41.011 187.303, 41.220 174.783, 43.815 164.969 C 50.640 139.157, 59.824 126, 71.015 126 C 77.378 126, 79.479 127.893, 85.495 139.046 C 89.509 146.487, 91.144 148.580, 93.818 149.697 C 97.713 151.325, 100.566 150.679, 102.094 147.825 C 103.990 144.282, 113 117.971, 113 115.978 C 113 113.474, 110.083 112, 105.129 112 C 102.023 112, 99.647 113.013, 94.523 116.521 L 87.920 121.041 84.710 118.635 C 78.942 114.311, 73.089 111.957, 65.732 111.001 C 61.754 110.484, 58.275 110.103, 58 110.153 C 57.725 110.203, 54.997 110.612, 51.938 111.063 M 160.500 130.087 C 145.511 131.438, 135.609 136.045, 132.096 143.302 C 129.640 148.376, 129.476 151.093, 131.405 154.800 C 133.459 158.748, 137.020 161.708, 141 162.777 L 144.500 163.717 139.500 164.438 C 123.130 166.801, 114.232 173.514, 110.513 186.307 C 107.773 195.734, 110.515 204.861, 118.016 211.281 C 123.358 215.854, 129.074 217.368, 138.857 216.802 C 147.196 216.319, 153.161 214.027, 158.028 209.436 L 160.555 207.052 163.396 210.061 C 168.523 215.494, 171.510 216.500, 182.500 216.499 C 191.401 216.499, 193.050 216.207, 197.500 213.842 C 206.302 209.167, 210.987 201.772, 209.484 194.929 C 208.596 190.886, 206.460 190.220, 203.449 193.048 C 200.194 196.105, 200.294 195.038, 204.618 180.590 C 210.618 160.535, 210.285 150.198, 203.379 142.130 C 198.278 136.170, 185.993 131.041, 176.750 131.012 C 174.688 131.005, 173 130.550, 173 130 C 173 129.450, 172.213 129.062, 171.250 129.138 C 170.287 129.213, 165.450 129.640, 160.500 130.087 M 258.906 130.117 C 237.841 132.313, 228.414 138.949, 235.500 146.595 C 236.875 148.078, 238 150.180, 238 151.265 C 238 152.877, 233.613 167.611, 223.846 198.798 C 223.201 200.857, 221.359 203.058, 218.939 204.659 C 214.814 207.389, 213.492 209.823, 214.466 212.892 C 215.653 216.632, 219.503 217.114, 245.725 216.800 C 268.074 216.533, 271.007 216.307, 272.754 214.725 C 275.480 212.255, 274.530 208.506, 270.375 205.337 C 268.519 203.921, 267.008 202.029, 267.018 201.131 C 267.050 198.113, 279.950 157.621, 281.313 156.258 C 282.446 155.126, 283.354 155.979, 286.965 161.561 C 291.718 168.911, 295.079 171, 302.152 171 C 308.643 171, 317.900 165.769, 318.605 161.702 C 318.720 161.041, 319.318 158.318, 319.933 155.650 C 321.123 150.499, 320.575 145.165, 318.417 140.898 C 316.538 137.181, 310.337 132.017, 306.934 131.337 C 305.338 131.018, 304.235 130.429, 304.483 130.028 C 304.730 129.628, 302.585 129.496, 299.716 129.736 C 294.019 130.211, 285.346 133.855, 282.547 136.948 C 280.802 138.876, 280.729 138.855, 277.584 135.521 C 275.829 133.660, 273.067 131.854, 271.446 131.508 C 269.826 131.162, 267.825 130.553, 267 130.155 C 266.175 129.756, 262.533 129.739, 258.906 130.117 M 417.121 130.127 C 407.350 131.750, 401.202 135.597, 395.252 143.811 C 389.558 151.671, 388.460 162, 393.319 162 C 394.574 162, 396.132 161.468, 396.783 160.817 C 397.434 160.166, 398.228 159.895, 398.549 160.215 C 398.869 160.535, 400.847 171.207, 402.946 183.929 C 407.350 210.629, 408.984 215.046, 415.869 218.861 C 419.975 221.135, 420.056 221.273, 418.100 222.642 C 416.984 223.424, 414.302 224.688, 412.140 225.450 L 408.210 226.837 406.507 222.379 C 402.022 210.636, 391.474 205.396, 382.023 210.217 C 376.250 213.161, 373.546 217.761, 373.643 224.472 C 373.824 236.946, 383.444 245.436, 398.782 246.656 C 412.425 247.742, 428.019 242.228, 442.697 231.129 C 451.261 224.653, 469.296 206.288, 468.444 204.910 C 468.174 204.472, 469.476 201.726, 471.339 198.807 C 475.924 191.624, 479.876 183.672, 482.166 177.022 C 490.450 152.972, 488.009 136.224, 475.526 131.457 C 457.027 124.392, 444.686 150.959, 457.572 170.108 C 459.458 172.909, 461 175.655, 461 176.211 C 461 179.728, 450.972 194.305, 449.538 192.871 C 449.280 192.613, 447.917 184.099, 446.509 173.951 C 442.450 144.684, 441.244 140.345, 435.751 135.220 C 433.941 133.531, 422.612 128.308, 422.514 129.117 C 422.506 129.181, 420.079 129.636, 417.121 130.127 M 412.909 134.554 C 404.688 137.086, 397.534 144.994, 394.504 154.901 C 393.904 156.862, 394.067 157.188, 395.393 156.679 C 397.652 155.813, 401.584 157.482, 402.445 159.673 C 402.839 160.678, 404.910 171.729, 407.046 184.231 C 409.181 196.733, 411.642 208.340, 412.513 210.025 C 414.428 213.729, 419.172 216.807, 424.250 217.640 C 426.313 217.979, 428 218.610, 428 219.044 C 428 220.353, 420.494 225.875, 415.852 227.981 C 413.458 229.067, 410.073 229.966, 408.329 229.978 C 405.554 229.997, 405.073 229.595, 404.471 226.750 C 403.378 221.588, 399.860 216.076, 396.224 213.830 C 391.747 211.062, 383.501 211.663, 380.838 214.951 C 376.872 219.849, 376.694 227.832, 380.424 233.524 C 383.134 237.660, 389.363 241.070, 396.413 242.278 C 418.590 246.077, 447.430 228.794, 466.296 200.400 C 481.133 178.069, 487.755 151.804, 481.318 140.813 C 475.561 130.983, 463.903 131.455, 458.857 141.723 C 457.081 145.339, 456.531 148.080, 456.595 153 C 456.690 160.377, 458.435 165.170, 463.169 171.061 L 466.449 175.142 463.184 181.438 C 456.932 193.496, 450.509 198.728, 447.060 194.572 C 446.409 193.787, 444.403 182.789, 442.603 170.132 C 438.761 143.106, 437.251 138.923, 430.011 135.250 C 424.959 132.687, 419.668 132.471, 412.909 134.554 M 150.500 135.352 C 141.317 137.720, 136.513 141.474, 134.540 147.824 C 133.506 151.152, 135.773 155.831, 139.303 157.657 C 144.094 160.134, 152.855 160.459, 157 158.313 C 161.729 155.864, 164.259 150.762, 163.479 145.250 L 162.877 141 166.984 141 C 170.067 141, 171.735 141.644, 173.676 143.585 C 176.052 145.961, 176.216 146.666, 175.708 152.335 C 175.404 155.726, 173.935 161.579, 172.445 165.341 C 169.899 171.768, 169.577 172.146, 167.118 171.572 C 148.890 167.317, 137.089 167.141, 128.206 170.990 C 110.522 178.653, 108.240 202.589, 124.439 210.514 C 135.279 215.818, 148.769 213.535, 157.586 204.905 L 161.672 200.906 164.332 204.925 C 167.427 209.602, 170.405 211.341, 178 212.904 C 184.864 214.316, 191.216 213.235, 197.422 209.599 C 202.381 206.692, 204.560 204.020, 205.965 199.123 C 206.880 195.930, 206.249 195.151, 204.315 197.085 C 203.719 197.681, 202.166 198.019, 200.865 197.835 C 198.769 197.538, 198.506 196.988, 198.549 193 C 198.576 190.525, 200.263 182.946, 202.299 176.159 C 207.814 157.769, 206.949 149.552, 198.739 142.344 C 192.178 136.584, 185.297 134.706, 169.500 134.365 C 160.370 134.168, 153.761 134.511, 150.500 135.352 M 247.388 135.627 C 243.531 136.542, 240.421 137.987, 238.958 139.545 L 236.639 142.013 239.319 144.811 C 243.583 149.261, 243.777 148.214, 231.320 188 C 227.036 201.686, 226.520 202.740, 222.140 206.779 C 218.341 210.284, 217.772 211.232, 219 212.014 C 220.992 213.283, 268.036 213.269, 270 212 C 271.243 211.196, 270.858 210.437, 267.750 207.566 C 265.041 205.064, 264 203.280, 264 201.142 C 264 197.069, 276.801 155.915, 278.742 153.750 C 280.702 151.563, 284.351 151.494, 286.461 153.604 C 287.344 154.487, 288.938 156.919, 290.005 159.010 C 292.932 164.748, 296.379 167, 302.231 167 C 311.760 167, 317 161.065, 317 150.272 C 317 139.972, 310.673 133.978, 299.849 134.022 C 292.953 134.050, 287.307 136.655, 282.847 141.866 L 279.305 146.004 277.751 142.047 C 275.374 135.996, 271.274 133.989, 261.500 134.092 C 257.100 134.138, 250.750 134.829, 247.388 135.627 M 166.671 150.250 C 166.169 154.581, 165.441 156.074, 162.515 158.778 C 160.564 160.581, 157.610 162.328, 155.950 162.660 C 153.216 163.207, 153.100 163.379, 154.716 164.489 C 156.580 165.770, 166.857 168.493, 167.449 167.863 C 167.636 167.663, 168.737 164.415, 169.895 160.645 C 172.264 152.928, 172.575 147.975, 170.800 146.200 C 168.462 143.862, 167.276 145.026, 166.671 150.250 M 147.269 164.693 C 148.242 164.947, 149.592 164.930, 150.269 164.656 C 150.946 164.382, 150.150 164.175, 148.500 164.195 C 146.850 164.215, 146.296 164.439, 147.269 164.693 M 151.368 181.571 C 148.606 184.500, 148 185.926, 148 189.500 C 148 201.185, 160.253 198.959, 164.944 186.421 C 168.035 178.159, 167.958 178, 160.868 178 C 155.132 178, 154.519 178.231, 151.368 181.571 M 156.276 182.526 C 152.755 184.006, 151 186.647, 151 190.466 C 151 195.583, 156.002 194.925, 159.145 189.394 C 163.098 182.439, 162.110 180.073, 156.276 182.526" stroke="none" fill="#328648" fill-rule="evenodd"/><path d="M 213.500 3 C 213.160 3.550, 213.447 4, 214.137 4 C 214.828 4, 216.992 5.104, 218.946 6.454 C 220.901 7.804, 224.525 9.204, 227 9.565 L 231.500 10.221 227 7.778 C 224.525 6.434, 221.150 4.587, 219.500 3.673 C 216.055 1.766, 214.379 1.578, 213.500 3 M 207.477 8.036 C 206.332 9.890, 195 50.433, 195 52.678 C 195 55.369, 197.500 58, 200.058 58 C 201.111 58, 204.950 55.474, 208.589 52.388 C 219.025 43.535, 216.585 44.013, 251.323 44.006 C 278.816 44.001, 282.112 44.170, 281.823 45.571 C 281.634 46.492, 275.438 49.956, 266.863 53.936 C 244.751 64.198, 227.138 75.313, 220.455 83.222 C 213.913 90.964, 210.582 104.081, 212.943 112.807 C 214.458 118.409, 220.220 124.717, 226.500 127.647 C 232.434 130.416, 234.380 130.519, 240.715 128.397 C 251.062 124.931, 255.223 119.556, 263.083 99.500 C 269.786 82.397, 276.796 68.922, 282.912 61.384 C 285.641 58.020, 292.229 51.765, 297.553 47.483 C 305.246 41.296, 307.719 38.652, 309.606 34.599 C 312.590 28.191, 312.622 24.218, 309.723 19.916 C 305.356 13.437, 303.125 13.118, 261.500 13.032 C 227.562 12.962, 224.159 12.801, 220.373 11.082 C 218.104 10.052, 215.940 8.711, 215.564 8.104 C 214.701 6.707, 208.332 6.653, 207.477 8.036 M 293.567 9.975 C 304.297 10.772, 310.244 13.508, 313.151 18.984 C 315.388 23.200, 315.531 29.485, 313.500 34.346 C 311.710 38.630, 311.641 39.340, 313.104 38.436 C 315.349 37.048, 317.956 29.397, 317.978 24.132 C 317.998 19.244, 317.663 18.428, 314.227 14.992 C 309.497 10.261, 304.918 8.972, 293.500 9.156 L 284.500 9.301 293.567 9.975 M 281.911 68.250 C 277.625 74.125, 273.082 83.372, 267.543 97.500 C 264.955 104.100, 261.290 112.345, 259.398 115.822 C 257.507 119.299, 256.412 121.863, 256.967 121.521 C 259.731 119.812, 264.570 110.652, 270.517 95.870 C 276.432 81.167, 280.381 72.955, 284.760 66.250 C 287.351 62.284, 285.124 63.847, 281.911 68.250 M 382 97.831 C 382 98.288, 383.140 99.272, 384.534 100.018 C 389.023 102.421, 391.343 107.435, 390.695 113.331 C 390.382 116.174, 384.473 136.779, 377.563 159.120 C 370.653 181.462, 365 200.665, 365 201.794 C 365 202.923, 366.125 205.184, 367.500 206.818 C 368.875 208.452, 370 210.341, 370 211.017 C 370 211.980, 370.323 211.976, 371.500 211 C 373.563 209.288, 373.397 208.260, 370.500 204.818 C 369.125 203.184, 368 201.089, 368 200.163 C 368 199.238, 373.850 179.485, 381 156.268 C 388.639 131.462, 394 112.374, 394 109.978 C 394 107.736, 393.345 104.634, 392.544 103.085 C 390.674 99.469, 382 95.147, 382 97.831 M 378.271 105.520 C 374.639 109.323, 369.203 110.869, 365.462 109.164 C 363.398 108.224, 362.677 108.477, 360.115 111.039 C 358.486 112.667, 356.314 114, 355.287 114 C 353.696 114, 351.509 120.310, 340.469 156.750 C 327.575 199.312, 327.498 199.521, 323.058 204.319 C 319.446 208.221, 318.799 209.458, 319.657 210.819 C 320.583 212.288, 323.287 212.536, 341.108 212.783 C 352.324 212.939, 362.512 212.818, 363.750 212.514 C 366.535 211.831, 366.632 209.882, 364 207.500 C 362.705 206.328, 362.001 204.424, 362.004 202.095 C 362.006 200.118, 367.891 179.375, 375.081 156 C 389.008 110.724, 389.316 109.095, 384.865 104.357 C 383.648 103.060, 382.392 102.031, 382.076 102.069 C 381.759 102.107, 380.047 103.659, 378.271 105.520 M 67.037 107.492 C 74.723 109.024, 79.473 110.890, 84.656 114.412 C 87.136 116.098, 88.764 116.636, 89.413 115.987 C 92.472 112.928, 73.797 105.780, 63.566 106.094 C 61.636 106.153, 62.922 106.671, 67.037 107.492 M 108.773 108.161 C 107.907 108.711, 108.219 108.974, 109.750 108.985 C 113.143 109.008, 116 112.445, 116 116.505 C 116 118.433, 113.750 126.124, 111 133.598 C 105.676 148.067, 105.119 150.320, 107.448 147.964 C 108.759 146.639, 117.984 122.121, 119.491 115.957 C 120.691 111.051, 113.016 105.469, 108.773 108.161 M 51.938 111.063 C 35.992 113.409, 21.971 123.607, 15.588 137.500 C 6.466 157.353, 4.763 177.572, 11.102 190.735 C 18.202 205.479, 35.686 214.854, 54.095 213.788 C 60.221 213.434, 63.242 212.632, 69.305 209.753 C 80.793 204.297, 92 193.007, 92 186.889 C 92 183.689, 88.614 180, 85.678 180 C 84.608 180, 80.435 183.132, 76.406 186.959 C 68.008 194.936, 63.561 197.495, 56.500 198.411 C 50.494 199.191, 46.084 196.969, 43.368 191.794 C 39.638 184.686, 41.857 167.679, 48.896 149.426 C 52.933 138.958, 56.930 132.788, 62.102 129.041 C 65.711 126.426, 67.175 126, 72.539 126 C 80.364 126, 81.555 126.951, 87.563 138 C 92.959 147.922, 96.152 151.404, 99.023 150.493 C 100.111 150.147, 101.493 148.947, 102.094 147.825 C 103.990 144.282, 113 117.971, 113 115.978 C 113 113.474, 110.083 112, 105.129 112 C 102.023 112, 99.647 113.013, 94.523 116.521 L 87.920 121.041 84.710 118.635 C 78.942 114.311, 73.089 111.957, 65.732 111.001 C 61.754 110.484, 58.275 110.103, 58 110.153 C 57.725 110.203, 54.997 110.612, 51.938 111.063 M 173 129.928 C 173 130.518, 174.688 131.005, 176.750 131.012 C 185.993 131.041, 198.278 136.170, 203.379 142.130 C 210.285 150.198, 210.618 160.535, 204.618 180.590 C 200.578 194.090, 200.219 196.248, 202.394 193.964 C 205.023 191.204, 212.258 164.069, 212.250 157 C 212.232 140.385, 202.356 132.286, 178.750 129.528 C 174.908 129.079, 173 129.212, 173 129.928 M 266.406 129.848 C 266.798 130.481, 268.104 131.002, 269.309 131.004 C 272.194 131.009, 277.579 134.345, 279.006 137.011 C 279.905 138.692, 280.431 138.887, 281.549 137.960 C 284.745 135.307, 278.645 130.766, 270.034 129.389 C 266.870 128.884, 265.887 129.008, 266.406 129.848 M 304.555 129.911 C 304.268 130.376, 305.338 131.018, 306.934 131.337 C 310.328 132.016, 316.525 137.169, 318.433 140.898 C 320.685 145.301, 321.143 151.162, 319.674 156.750 C 318.914 159.637, 318.580 162, 318.931 162 C 320.380 162, 323.129 155.710, 323.668 151.158 C 324.927 140.522, 318.559 131.627, 308.289 129.676 C 306.523 129.340, 304.842 129.446, 304.555 129.911 M 424 129.461 C 424 129.715, 425.780 130.402, 427.955 130.988 C 432.887 132.316, 437.527 136.148, 439.928 140.876 C 442.226 145.402, 443.292 150.756, 446.509 173.951 C 447.917 184.099, 449.248 192.581, 449.468 192.801 C 450.823 194.156, 451.819 191.287, 451.403 187.226 C 449.826 171.821, 446.631 149.673, 445.258 144.613 C 443.301 137.406, 438.295 131.717, 432.500 130.116 C 428.390 128.981, 424 128.643, 424 129.461 M 473 129.688 C 473 130.189, 474.574 131.167, 476.498 131.863 C 485.613 135.159, 489.327 148.856, 485.534 165.188 C 482.511 178.207, 478.522 187.480, 470.345 200.500 L 465.949 207.500 470.002 203 C 475.153 197.280, 485.323 176.848, 488.029 166.781 C 490.999 155.732, 490.930 144.432, 487.855 138.299 C 486.560 135.717, 484.375 132.816, 483 131.854 C 480.153 129.861, 473 128.312, 473 129.688 M 412.860 134.568 C 408.602 135.879, 397.824 144.152, 398.200 145.821 C 398.285 146.195, 397.789 148.477, 397.100 150.893 C 395.682 155.862, 396.418 156.958, 401.191 156.985 C 402.671 156.993, 404.167 157.461, 404.515 158.025 C 404.864 158.588, 406.878 169.354, 408.991 181.949 C 411.105 194.544, 413.604 206.470, 414.544 208.452 C 416.517 212.609, 419.760 215.422, 424.597 217.171 C 426.469 217.848, 428 218.724, 428 219.117 C 428 220.364, 420.372 225.930, 415.852 227.981 C 413.458 229.067, 410.073 229.966, 408.329 229.978 C 405.554 229.997, 405.073 229.595, 404.471 226.750 C 403.378 221.588, 399.860 216.076, 396.224 213.830 C 393.609 212.213, 391.770 211.864, 387.861 212.239 C 381.147 212.884, 379.805 214.438, 379.739 221.639 C 379.661 230.208, 383.555 236.275, 391.804 240.439 C 406.249 247.731, 431.927 238.187, 452.042 218.050 C 475.136 194.932, 490.018 155.669, 481.318 140.813 C 477.419 134.155, 470.733 132.018, 464.265 135.363 C 461.758 136.659, 460.937 138.053, 459.456 143.525 C 457.025 152.504, 458.391 160.213, 463.804 168.062 L 467.639 173.624 465.854 177.828 C 464.120 181.911, 460.132 187.625, 455.091 193.250 C 452.403 196.248, 448.926 196.821, 447.060 194.572 C 446.409 193.787, 444.403 182.789, 442.603 170.132 C 438.761 143.106, 437.251 138.923, 430.011 135.250 C 424.949 132.682, 419.668 132.472, 412.860 134.568 M 150.500 135.352 C 144.927 136.789, 139.901 139.190, 138.293 141.184 C 136.258 143.706, 135.844 148.692, 137.368 152.337 C 140.299 159.353, 151.581 162.125, 158.569 157.547 C 162.165 155.191, 164.293 149.696, 163.479 144.873 L 162.824 141 168.190 141 C 175.630 141, 178 142.830, 178 148.575 C 178 153.497, 173.950 166.193, 171.645 168.498 C 170.838 169.305, 170.006 170.483, 169.794 171.117 C 169.517 171.949, 167.472 171.765, 162.455 170.457 C 157.913 169.273, 151.683 168.619, 144.500 168.572 C 135.036 168.510, 132.802 168.822, 128.500 170.804 C 121.108 174.209, 118.417 177.279, 116.449 184.552 C 115.007 189.878, 114.924 191.652, 115.925 195.693 C 117.661 202.698, 121.006 207.141, 127 210.403 C 136.740 215.705, 148.811 213.494, 157.715 204.779 C 161.243 201.325, 162.035 200.928, 162.579 202.344 C 162.936 203.274, 163.754 203.915, 164.397 203.768 C 165.040 203.620, 167.207 205.141, 169.213 207.146 C 176.629 214.562, 187.355 215.498, 197.405 209.609 C 202.381 206.693, 204.559 204.024, 205.965 199.123 C 206.880 195.930, 206.249 195.151, 204.315 197.085 C 203.719 197.681, 202.166 198.019, 200.865 197.835 C 198.769 197.538, 198.506 196.988, 198.549 193 C 198.576 190.525, 200.263 182.946, 202.299 176.159 C 207.814 157.769, 206.949 149.552, 198.739 142.344 C 192.178 136.584, 185.297 134.706, 169.500 134.365 C 160.370 134.168, 153.761 134.511, 150.500 135.352 M 247.090 135.818 C 238.969 137.949, 237.555 139.883, 241.278 143.768 C 245.415 148.087, 245.741 146.355, 233.351 185.886 C 229.225 199.051, 228.465 200.643, 224.396 204.655 C 220.616 208.381, 220.109 209.335, 221.010 211.019 C 222.021 212.907, 223.160 212.999, 245.285 212.985 C 258.551 212.976, 269.143 212.554, 270 212 C 271.243 211.196, 270.858 210.437, 267.750 207.566 C 265.041 205.064, 264 203.280, 264 201.142 C 264 197.044, 276.807 155.908, 278.763 153.727 C 279.894 152.465, 281.524 152.036, 284.419 152.239 C 288.081 152.495, 288.809 153.020, 291.725 157.512 C 296.259 164.495, 299.407 167, 303.651 167 C 311.717 167, 317 160.380, 317 150.272 C 317 139.972, 310.673 133.978, 299.849 134.022 C 292.953 134.050, 287.307 136.655, 282.847 141.866 L 279.305 146.004 277.751 142.047 C 275.378 136.007, 271.274 133.993, 261.500 134.072 C 257.100 134.107, 250.616 134.893, 247.090 135.818 M 57.672 138.752 C 49.333 150.785, 42.480 180.241, 45.916 189.280 C 47.358 193.073, 49.875 195.003, 53.321 194.960 L 56.500 194.920 53.881 193.497 C 48.199 190.409, 46.575 180.811, 49.453 167.315 C 51.303 158.642, 54.951 148.001, 58.423 141.151 C 61.678 134.728, 61.299 133.518, 57.672 138.752 M 166.986 147.750 C 166.979 149.262, 166.716 151.625, 166.401 153 L 165.830 155.500 167.893 153 C 170.344 150.029, 170.726 145, 168.500 145 C 167.534 145, 166.995 145.978, 166.986 147.750 M 281.090 156.391 C 279.790 157.959, 267.046 198.472, 267.018 201.131 C 267.008 202.029, 268.575 203.964, 270.500 205.432 C 272.425 206.900, 274 208.979, 274 210.051 C 274 212.356, 275.279 212.573, 276.957 210.552 C 278.428 208.780, 277.557 207.130, 273.250 203.535 C 271.462 202.043, 270 200.257, 270 199.567 C 270 198.876, 272.934 188.726, 276.520 177.010 C 280.107 165.293, 282.871 155.537, 282.663 155.330 C 282.455 155.122, 281.747 155.599, 281.090 156.391 M 147.269 164.693 C 148.242 164.947, 149.592 164.930, 150.269 164.656 C 150.946 164.382, 150.150 164.175, 148.500 164.195 C 146.850 164.215, 146.296 164.439, 147.269 164.693 M 160.500 166.583 C 163.250 167.355, 166.175 167.844, 167 167.670 C 169.026 167.244, 161.147 164.989, 158 165.095 C 156.358 165.150, 157.217 165.661, 160.500 166.583 M 89.633 177.918 C 93.409 180.220, 96.004 183.714, 95.988 186.473 C 95.981 187.588, 94.873 190.429, 93.526 192.786 C 90.577 197.943, 92 197.363, 96.066 191.750 C 99.867 186.504, 99.870 182.716, 96.077 178.923 C 94.015 176.861, 92.174 176.001, 89.827 176.004 L 86.500 176.007 89.633 177.918 M 151.368 181.571 C 148.606 184.500, 148 185.926, 148 189.500 C 148 194.640, 149.910 197, 154.069 197 C 158.035 197, 164.423 191.109, 166.316 185.705 C 167.126 183.392, 168.109 180.713, 168.501 179.750 C 169.141 178.179, 168.474 178, 161.975 178 C 154.970 178, 154.627 178.115, 151.368 181.571 M 152.450 185.435 C 150.186 188.891, 150.887 193.413, 153.750 193.820 C 156.082 194.151, 156.823 192.627, 154.906 191.442 C 154.304 191.070, 153.979 189.020, 154.183 186.883 C 154.386 184.747, 154.439 183, 154.299 183 C 154.160 183, 153.328 184.096, 152.450 185.435 M 209.450 194.702 C 209.811 196.840, 209.620 199.869, 209.025 201.434 C 207.464 205.540, 208.550 205.780, 210.969 201.863 C 213.570 197.650, 213.390 191.686, 210.646 191.165 C 209.013 190.855, 208.871 191.276, 209.450 194.702 M 392.500 208.929 C 399.149 210.533, 403.625 214.834, 406.510 222.388 C 407.727 225.573, 408.643 226.691, 409.704 226.283 C 413.225 224.932, 407.674 213.601, 401.710 209.965 C 399.674 208.723, 396.854 208.044, 394 208.106 C 389.961 208.195, 389.807 208.279, 392.500 208.929" stroke="none" fill="#f6fa4e" fill-rule="evenodd"/></svg>